<?xml version="1.0" encoding="iso-8859-1"?>
<!-- Uploaded to: SVG Repo, www.svgrepo.com, Generator: SVG Repo Mixer Tools -->
<svg version="1.1" id="Layer_1" xmlns="http://www.w3.org/2000/svg" xmlns:xlink="http://www.w3.org/1999/xlink" 
	 viewBox="0 0 512 512" xml:space="preserve">
<g>
	
		<rect x="75.044" y="50.937" transform="matrix(-0.7071 0.7071 -0.7071 -0.7071 213.5915 81.3704)" style="fill:#FFCA66;" width="29.8" height="67.969"/>
	
		<rect x="407.158" y="50.945" transform="matrix(0.7071 0.7071 -0.7071 0.7071 183.6719 -273.5645)" style="fill:#FFCA66;" width="29.8" height="67.969"/>
</g>
<g>
	
		<rect x="67.911" y="53.89" transform="matrix(-0.7071 0.7071 -0.7071 -0.7071 196.3731 74.2426)" style="opacity:0.15;fill:#293133;enable-background:new    ;" width="29.8" height="47.804"/>
	
		<rect x="413.591" y="53.597" transform="matrix(0.7071 0.7071 -0.7071 0.7071 181.0082 -279.9978)" style="opacity:0.15;fill:#293133;enable-background:new    ;" width="29.8" height="49.801"/>
</g>
<path style="fill:#FFCA66;" d="M393.249,503.508c6.447,0,12.969-1.8,18.782-5.568c16.032-10.391,20.605-31.811,10.214-47.843
	l-40.357-62.267c-10.392-16.032-31.812-20.605-47.843-10.214c-16.032,10.391-20.605,31.811-10.214,47.843l40.357,62.267
	C370.813,497.944,381.917,503.508,393.249,503.508z"/>
<path style="opacity:0.15;fill:#333333;enable-background:new    ;" d="M381.888,387.832
	c-10.392-16.032-31.812-20.605-47.843-10.214c-16.032,10.392-20.605,31.811-10.214,47.843l23.397,36.098
	c21.367-9.396,41.024-21.979,58.362-37.155L381.888,387.832z"/>
<path style="fill:#FFCA66;" d="M118.752,503.508c-6.447,0-12.969-1.8-18.782-5.568c-16.032-10.391-20.605-31.811-10.214-47.843
	l40.357-62.267c10.392-16.032,31.812-20.605,47.843-10.214c16.032,10.391,20.605,31.811,10.214,47.843l-40.357,62.267
	C141.19,497.944,130.086,503.508,118.752,503.508z"/>
<path style="opacity:0.15;fill:#333333;enable-background:new    ;" d="M177.957,377.616c-16.032-10.39-37.451-5.818-47.843,10.214
	l-23.703,36.57c17.338,15.177,36.997,27.76,58.362,37.155l23.397-36.098C198.561,409.427,193.989,388.008,177.957,377.616z"/>
<circle style="fill:#FF8095;" cx="256.006" cy="253.287" r="204.747"/>
<path style="fill:#2EC8E6;" d="M256.001,106.19c81.108,0,147.096,65.987,147.096,147.096S337.11,400.382,256.001,400.382
	c-81.11,0-147.096-65.987-147.096-147.096C108.906,172.176,174.893,106.19,256.001,106.19z"/>
<path style="opacity:0.15;fill:#293133;enable-background:new    ;" d="M150.799,253.286c0-73.998,54.927-135.398,126.149-145.598
	c-6.845-0.981-13.836-1.498-20.947-1.498c-81.11,0-147.096,65.987-147.096,147.096s65.987,147.096,147.096,147.096
	c7.111,0,14.102-0.519,20.947-1.498C205.726,388.684,150.799,327.284,150.799,253.286z"/>
<g>
	<path style="fill:#2EC8E6;" d="M36.282,31.262c-30.359,30.359-30.359,79.581,0,109.94l109.94-109.94
		C115.864,0.902,66.642,0.902,36.282,31.262z"/>
	<path style="fill:#2EC8E6;" d="M475.719,31.262c30.359,30.359,30.359,79.581,0,109.94l-109.94-109.94
		C396.138,0.902,445.361,0.902,475.719,31.262z"/>
</g>
<g>
	<path style="fill:#26150C;" d="M366.019,143.27c-0.275-0.275-0.57-0.52-0.871-0.748C337.042,114.823,298.486,97.7,256.001,97.7
		s-81.041,17.123-109.147,44.823c-0.301,0.23-0.594,0.473-0.87,0.748c-0.275,0.275-0.519,0.57-0.748,0.871
		c-27.699,28.106-44.822,66.661-44.822,109.146c0,42.486,17.123,81.042,44.823,109.148c0.23,0.301,0.473,0.594,0.747,0.87
		c0.275,0.274,0.567,0.517,0.868,0.747c28.106,27.701,66.662,44.824,109.148,44.824s81.042-17.124,109.148-44.824
		c0.301-0.229,0.593-0.472,0.868-0.747s0.519-0.568,0.747-0.87c27.7-28.106,44.823-66.663,44.823-109.148
		s-17.123-81.041-44.822-109.146C366.537,143.838,366.294,143.545,366.019,143.27z M345.742,261.778h48.594
		c-1.934,31.834-14.658,60.797-34.558,83.276l-34.317-34.315c-3.316-3.315-8.694-3.315-12.009,0c-3.316,3.318-3.316,8.694,0,12.01
		l34.315,34.315c-22.479,19.901-51.442,32.625-83.276,34.559v-48.596c0-4.691-3.802-8.492-8.492-8.492
		c-4.69,0-8.492,3.801-8.492,8.492v48.596c-31.834-1.934-60.797-14.659-83.276-34.559l34.315-34.315
		c3.316-3.318,3.316-8.694,0-12.01c-3.315-3.315-8.692-3.315-12.009,0l-34.315,34.315c-19.9-22.479-32.624-51.442-34.558-83.276
		h48.594c4.69,0,8.492-3.801,8.492-8.492c0-4.691-3.802-8.492-8.492-8.492h-48.596c1.934-31.834,14.658-60.797,34.559-83.276
		l34.315,34.315c1.658,1.658,3.832,2.488,6.004,2.488s4.347-0.829,6.004-2.488c3.316-3.316,3.316-8.694,0-12.009l-34.315-34.315
		c22.479-19.901,51.442-32.625,83.276-34.559v48.594c0,4.69,3.802,8.492,8.492,8.492c4.69,0,8.492-3.802,8.492-8.492v-48.594
		c31.834,1.934,60.797,14.658,83.276,34.559l-34.315,34.315c-3.316,3.316-3.316,8.693,0,12.009c1.658,1.659,3.832,2.488,6.004,2.488
		s4.347-0.829,6.004-2.488l34.315-34.315c19.901,22.479,32.625,51.442,34.559,83.276h-48.594c-4.69,0-8.492,3.801-8.492,8.492
		C337.25,257.977,341.052,261.778,345.742,261.778z"/>
	<path style="fill:#26150C;" d="M306.263,244.794h-41.77v-41.77c0-4.69-3.802-8.492-8.492-8.492c-4.69,0-8.492,3.802-8.492,8.492
		v50.262c0,4.691,3.802,8.492,8.492,8.492h50.262c4.69,0,8.492-3.801,8.492-8.492C314.755,248.595,310.953,244.794,306.263,244.794z
		"/>
	<path style="fill:#26150C;" d="M481.724,25.257C465.437,8.97,443.782,0,420.749,0c-23.033,0-44.688,8.97-60.975,25.257
		c-3.316,3.316-3.316,8.694,0,12.009l38.429,38.429l-10.219,10.219c-36.331-28.711-82.19-45.87-131.983-45.87
		s-95.652,17.161-131.983,45.871l-10.219-10.219l38.429-38.429c3.316-3.316,3.316-8.694,0-12.009C135.942,8.97,114.286,0,91.254,0
		C68.22,0,46.565,8.97,30.278,25.257C13.99,41.544,5.022,63.198,5.022,86.232c0,23.032,8.97,44.688,25.257,60.975
		c1.658,1.658,3.832,2.488,6.004,2.488s4.347-0.829,6.004-2.488l38.429-38.429l9.971,9.971
		c-29.944,36.725-47.929,83.568-47.929,134.538c0,60.089,24.992,114.446,65.118,153.243l-25.247,38.95
		c-12.92,19.936-7.214,46.666,12.721,59.586c6.999,4.537,15.091,6.935,23.402,6.935c14.681,0,28.209-7.347,36.186-19.655
		l25.665-39.597c23.454,8.895,48.864,13.781,75.397,13.781s51.943-4.886,75.396-13.781l25.665,39.597
		c7.978,12.307,21.506,19.654,36.187,19.654c8.311,0,16.403-2.398,23.4-6.934c9.657-6.259,16.299-15.905,18.702-27.158
		c2.403-11.255,0.279-22.771-5.981-32.429l-25.245-38.95c40.125-38.798,65.116-93.154,65.116-153.243
		c0-50.97-17.985-97.813-47.929-134.538l9.971-9.971l38.429,38.429c1.658,1.658,3.832,2.488,6.004,2.488s4.347-0.829,6.004-2.488
		c16.288-16.286,25.257-37.942,25.257-60.975C506.981,63.198,498.011,41.544,481.724,25.257z M74.712,90.763l-38.068,38.068
		c-9.493-12.119-14.64-26.963-14.64-42.599c0-18.497,7.203-35.887,20.282-48.966s30.469-20.282,48.967-20.282
		c15.635,0,30.479,5.146,42.599,14.64L95.785,69.691L74.712,90.763z M111.018,96.934c-3.132,2.905-6.18,5.908-9.132,8.994
		l-9.16-9.159l9.063-9.063L111.018,96.934z M140.687,483.107c-4.834,7.457-13.033,11.909-21.935,11.909
		c-5.025,0-9.922-1.453-14.163-4.203c-12.077-7.827-15.534-24.021-7.707-36.098l23.759-36.656
		c13.525,11.129,28.285,20.502,44.069,27.984L140.687,483.107z M415.119,454.715c3.792,5.85,5.078,12.827,3.623,19.646
		c-1.455,6.818-5.479,12.661-11.329,16.453c-4.24,2.749-9.139,4.202-14.162,4.202c-8.901,0-17.102-4.452-21.935-11.909
		l-24.023-37.063c15.784-7.481,30.545-16.855,44.069-27.984L415.119,454.715z M452.258,253.286
		c0,108.217-88.04,196.258-196.257,196.258S59.744,361.503,59.744,253.286S147.785,57.029,256.002,57.029
		S452.258,145.069,452.258,253.286z M400.985,96.934l9.228-9.229l9.063,9.063l-9.16,9.159
		C407.165,102.842,404.116,99.84,400.985,96.934z M475.358,128.831L437.29,90.763l-21.073-21.073l-38.067-38.067
		c12.119-9.494,26.963-14.64,42.598-14.64c18.497,0,35.887,7.203,48.966,20.282c13.079,13.079,20.282,30.469,20.282,48.966
		C489.997,101.867,484.851,116.712,475.358,128.831z"/>
</g>
</svg>