<?xml version="1.0" encoding="iso-8859-1"?>
<!-- Uploaded to: SVG Repo, www.svgrepo.com, Generator: SVG Repo Mixer Tools -->
<svg height="800px" width="800px" version="1.1" id="Layer_1" xmlns="http://www.w3.org/2000/svg" xmlns:xlink="http://www.w3.org/1999/xlink" 
	 viewBox="0 0 512 512" xml:space="preserve">
<path style="fill:#FFAB64;" d="M326.62,427.846c0,13.062-10.59,23.652-23.652,23.652H185.887c-13.062,0-23.652-10.59-23.652-23.652
	l0,0c0-13.063,10.59-23.652,23.652-23.652h117.081C316.03,404.194,326.62,414.784,326.62,427.846L326.62,427.846z"/>
<path style="fill:#00AE90;" d="M244.428,403.844L244.428,403.844c-89.692,0-162.402-72.71-162.402-162.402v-83.938H406.83v83.938
	C406.83,331.134,334.12,403.844,244.428,403.844z"/>
<path style="fill:#81CCB5;" d="M317.33,496.906H171.526c-38.976,0-76.132-16.496-102.274-45.407l0,0h350.35l0,0
	C393.461,480.409,356.306,496.906,317.33,496.906z"/>
<path d="M417.034,282.851c41.669-4.904,74.108-40.413,74.108-83.378v-41.969c0-8.336-6.757-15.094-15.094-15.094h-68.884
	c-0.056,0-0.112,0.008-0.168,0.009c-0.056,0-0.11-0.009-0.168-0.009H82.026c-8.336,0-15.094,6.757-15.094,15.094v83.938
	c0,67.765,38.178,126.772,94.149,156.669c-8.513,7.114-13.939,17.801-13.939,29.736c0,2.942,0.341,5.803,0.964,8.558H69.252H35.951
	c-8.336,0-15.094,6.757-15.094,15.094c0,8.336,6.757,15.094,15.094,15.094h26.823C91.405,495.525,130.651,512,171.524,512H317.33
	c40.873,0,80.12-16.475,108.75-45.407h26.824c8.336,0,15.094-6.757,15.094-15.094s-6.757-15.094-15.094-15.094h-33.301H340.75
	c0.623-2.756,0.964-5.618,0.964-8.558c0-11.934-5.428-22.622-13.939-29.736C371.971,374.504,405.065,332.743,417.034,282.851z
	 M460.955,199.473c0,24.642-16.663,45.453-39.308,51.793c0.178-3.253,0.276-6.528,0.276-9.824v-68.845h39.032V199.473z
	 M317.33,481.813H171.524c-20.871,0-41.216-5.349-59.176-15.22h73.537h117.081h73.537
	C358.547,476.464,338.201,481.813,317.33,481.813z M185.887,436.405c-4.718,0-8.558-3.84-8.558-8.558s3.84-8.558,8.558-8.558
	h117.081c4.718,0,8.558,3.838,8.558,8.558c0,4.72-3.84,8.558-8.558,8.558H185.887z M244.428,388.751
	c-81.226,0-147.308-66.083-147.308-147.308v-68.845h294.617v68.845c0,3.979-0.165,7.921-0.475,11.821H192.275
	c-8.336,0-15.094,6.757-15.094,15.094s6.757,15.094,15.094,15.094h193.35C367.494,344.273,311.063,388.751,244.428,388.751z"/>
<path d="M146.994,283.457c-0.981,0-1.977-0.106-2.943-0.302c-0.966-0.196-1.917-0.483-2.822-0.86
	c-0.921-0.377-1.796-0.845-2.611-1.389c-0.83-0.543-1.6-1.177-2.294-1.872c-0.694-0.694-1.328-1.464-1.872-2.294
	c-0.558-0.815-1.011-1.706-1.389-2.611c-0.377-0.906-0.679-1.857-0.86-2.822c-0.196-0.966-0.302-1.962-0.302-2.943
	s0.106-1.977,0.302-2.958c0.181-0.951,0.483-1.902,0.86-2.822c0.377-0.906,0.83-1.781,1.389-2.596c0.543-0.83,1.177-1.6,1.872-2.294
	c0.694-0.709,1.464-1.328,2.294-1.887c0.815-0.543,1.69-1.011,2.611-1.389c0.906-0.377,1.857-0.664,2.822-0.86
	c1.932-0.392,3.939-0.392,5.886,0c0.966,0.196,1.917,0.483,2.822,0.86c0.921,0.377,1.796,0.845,2.611,1.389
	c0.83,0.558,1.6,1.177,2.294,1.887c0.694,0.694,1.328,1.464,1.872,2.294c0.558,0.815,1.011,1.69,1.389,2.596
	c0.377,0.921,0.679,1.872,0.86,2.822c0.196,0.981,0.302,1.977,0.302,2.958c0,0.981-0.106,1.977-0.302,2.943
	c-0.181,0.966-0.483,1.917-0.86,2.822c-0.377,0.906-0.83,1.796-1.389,2.611c-0.543,0.83-1.177,1.6-1.872,2.294
	c-0.694,0.694-1.464,1.328-2.294,1.872c-0.815,0.543-1.69,1.011-2.611,1.389c-0.906,0.377-1.857,0.664-2.822,0.86
	C148.972,283.351,147.974,283.457,146.994,283.457z"/>
<path d="M239.068,104.832c-2.667,0-5.369-0.706-7.815-2.192c-7.127-4.324-9.399-13.607-5.076-20.734
	c11.37-18.742,11.37-40.239,0-58.983c-4.323-7.127-2.051-16.41,5.076-20.732c7.124-4.324,16.408-2.051,20.732,5.076
	c17.151,28.27,17.151,62.027,0,90.297C249.148,102.245,244.17,104.832,239.068,104.832z"/>
<path d="M300.051,108.195c-2.667,0-5.369-0.706-7.815-2.192c-7.127-4.324-9.399-13.607-5.076-20.734
	c7.482-12.331,7.482-26.476,0-38.807c-4.323-7.127-2.051-16.41,5.076-20.734c7.126-4.324,16.408-2.053,20.734,5.076
	c13.319,21.954,13.319,48.17,0,70.123C310.13,105.608,305.151,108.195,300.051,108.195z"/>
<path d="M180.976,108.195c-2.667,0-5.369-0.706-7.815-2.192c-7.127-4.324-9.399-13.607-5.076-20.734
	c7.482-12.331,7.482-26.476,0-38.807c-4.323-7.127-2.051-16.41,5.076-20.734c7.126-4.324,16.41-2.053,20.734,5.076
	c13.319,21.954,13.319,48.17,0,70.123C191.056,105.608,186.078,108.195,180.976,108.195z"/>
</svg>